<?xml version="1.0" encoding="UTF-8"?>
<svg width="25px" height="25px" viewBox="0 0 25 25" version="1.1" xmlns="http://www.w3.org/2000/svg" xmlns:xlink="http://www.w3.org/1999/xlink">
    <title>property-add-l</title>
    <g id="property-add-l" stroke="none" stroke-width="1" fill="none" fill-rule="evenodd">
        <rect id="connection" fill="#9D87FF" x="13" y="5" width="12" height="15"></rect>
        <polygon id="Path-9" fill="#EA5E36" fill-rule="nonzero" points="11.5 1.5 0.5 12.5 11.5 23.5 22.5 12.5"></polygon>
        <path transform="translate(0.500000, 1.500000)" d="M11,1 L21,11 L11,21 L1,11 L11,1 Z M9,7.5 L8,7.5 L6.5,9 L5,10.5 L5,11.5 L8,14.5 L9,14.5 L10.5,13 L9.5,12 L8.5,13 L6.5,11 L8.5,9 L9.5,10 L10.5,9 L9,7.5 Z M14,7.5 L13,7.5 L11.5,9 L10,10.5 L10,11.5 L13,14.5 L14,14.5 L17,11.5 L17,10.5 L15.5,11 L13.5,13 L11.5,11 L13.5,9 L15.5,11 L17,10.5 L14,7.5 Z" id="Combined-Shape" fill="#484A5E"></path>
        <!-- <path d="M11.5,2.5 L21.5,12.5 L11.5,22.5 L1.5,12.5 L11.5,2.5 Z M12,9 L11,9 L11,12 L8,12 L8,13 L11,13 L11,16 L12,16 L12,13 L15,13 L15,12 L12,12 L12,9 Z" id="Combined-Shape" fill="#484A5E" fill-rule="nonzero"></path> -->
    </g>
</svg>