<svg width="15" height="15" viewBox="0 0 15 15" xmlns="http://www.w3.org/2000/svg"><path d="M6.08578644,2.41421356 C6.86683502,1.63316498 8.13316498,1.63316498 8.91421356,2.41421356 L8.91421356,2.41421356 L12.5857864,6.08578644 C13.366835,6.86683502 13.366835,8.13316498 12.5857864,8.91421356 L12.5857864,8.91421356 L8.91421356,12.5857864 C8.13316498,13.366835 6.86683502,13.366835 6.08578644,12.5857864 L6.08578644,12.5857864 L2.41421356,8.91421356 C1.63316498,8.13316498 1.63316498,6.86683502 2.41421356,6.08578644 L2.41421356,6.08578644 Z M8,5 L7,5 L7,7 L5,7 L5,8 L7,8 L7,10 L8,10 L8,8 L10,8 L10,7 L8,7 L8,5 Z" fill="#675BFF"/></svg>