<svg width="15" height="15" viewBox="0 0 15 15" xmlns="http://www.w3.org/2000/svg"><path d="M11.004386,4.93391814 L11.995614,5.06608186 L10.9377582,13 L4.0622418,13 L3.00438605,5.06608186 L3.99561395,4.93391814 L4.937,12 L10.062,12 L11.004386,4.93391814 Z M6.2489733,4.97736606 L6.7489733,10.4773661 L6.2510267,10.5226339 L5.7510267,5.02263394 L6.2489733,4.97736606 Z M8.7530801,4.97736606 L9.2510267,5.02263394 L8.7510267,10.5226339 L8.2530801,10.4773661 L8.7530801,4.97736606 Z M9.20710678,2 L10.207,3 L13,3 L13,4 L9.79289322,4 L8.793,3 L6.206,3 L5.20710678,4 L2,4 L2,3 L4.792,3 L5.79289322,2 L9.20710678,2 Z" fill="#675BFF"/></svg>