<svg width="20" height="20" viewBox="0 0 20 20" xmlns="http://www.w3.org/2000/svg"><g fill="none" fill-rule="evenodd"><path d="M10,2 L10,4 C6.6862915,4 4,6.6862915 4,10 C4,13.3137085 6.6862915,16 10,16 C13.2383969,16 15.8775718,13.4344251 15.9958615,10.2249383 L16,10 L18,10 C18,14.418278 14.418278,18 10,18 C5.581722,18 2,14.418278 2,10 C2,5.66508574 5.44783777,2.13545713 9.75082067,2.00380682 L10,2 Z" fill="#675BFF" fill-rule="nonzero" transform="rotate(45 10 10)"/><polygon fill="#675BFF" fill-rule="nonzero" points="14.2928932 7.70710678 15.7071068 6.29289322 19.4142136 10 15.7071068 13.7071068 14.2928932 12.2928932 16.585 10"/><polygon fill="#675BFF" fill-rule="nonzero" points="18 10 14 11 10 11 10 9 14 9"/></g></svg>